<svg xmlns="http://www.w3.org/2000/svg" viewBox="0 0 256 96"><g fill-rule="evenodd"><path fill="#cb7800" d="M111.58.005C99.142-.218 85.942 6.441 62.844 19.49c12.481 5.3 28.56 14.977 53.976 29.305 3.679 2.074 7.438 4.033 11.18 5.93 3.741-1.897 7.5-3.857 11.179-5.93 14.69-8.281 26.163-14.95 35.734-20.188C142.308 10.349 126.501.27 111.577.005z"/><path fill="#a03400" d="M42.564 14.547C31.042 14.753 19.616 20.502 0 31.516V96h.398s104.368-.139 80.264-22.47c-11.859-10.987 44.36-17.446 44.892-17.507.955-.475 1.885-.913 2.844-1.4-3.742-1.895-7.5-3.854-11.18-5.93-41.4-23.336-58.128-34.442-74.655-34.146z"/><path fill="#006b45" d="M213.436 14.547c-16.527-.296-33.258 10.81-74.656 34.148-4.58 2.58-9.266 5.005-13.907 7.313l.047-.008s-.356.162-.68.312c-.114.057-.221.108-.335.164-4.05 2.005-17.265 10.144 19.57 16.703C187.387 80.999 167.256 96 167.256 96H256V31.517c-19.615-11.014-31.04-16.763-42.564-16.97z"/></g><path fill="#49a6ff" d="M125.32 56s-56.968 6.492-45.052 17.532C104.368 95.862 0 96 0 96h167.652s20.135-15-23.78-22.82C101.55 65.646 125.32 56 125.32 56z"/></svg>
